# RftG VP chip (pointy-top hex) - fully triangulated
v 0.000000 0.040000 0.000000
v 0.000000 0.040000 1.000000
v 0.866025 0.040000 0.500000
v 0.866025 0.040000 -0.500000
v 0.000000 0.040000 -1.000000
v -0.866025 0.040000 -0.500000
v -0.866025 0.040000 0.500000
v 0.000000 -0.040000 0.000000
v 0.000000 -0.040000 1.000000
v 0.866025 -0.040000 0.500000
v 0.866025 -0.040000 -0.500000
v 0.000000 -0.040000 -1.000000
v -0.866025 -0.040000 -0.500000
v -0.866025 -0.040000 0.500000
v 0.000000 -0.040000 1.000000
v 0.866025 -0.040000 0.500000
v 0.866025 0.040000 0.500000
v 0.000000 0.040000 1.000000
v 0.866025 -0.040000 0.500000
v 0.866025 -0.040000 -0.500000
v 0.866025 0.040000 -0.500000
v 0.866025 0.040000 0.500000
v 0.866025 -0.040000 -0.500000
v 0.000000 -0.040000 -1.000000
v 0.000000 0.040000 -1.000000
v 0.866025 0.040000 -0.500000
v 0.000000 -0.040000 -1.000000
v -0.866025 -0.040000 -0.500000
v -0.866025 0.040000 -0.500000
v 0.000000 0.040000 -1.000000
v -0.866025 -0.040000 -0.500000
v -0.866025 -0.040000 0.500000
v -0.866025 0.040000 0.500000
v -0.866025 0.040000 -0.500000
v -0.866025 -0.040000 0.500000
v 0.000000 -0.040000 1.000000
v 0.000000 0.040000 1.000000
v -0.866025 0.040000 0.500000
vt 0.206500 0.750500
vt 0.206500 0.999000
vt 0.000000 0.874750
vt 0.000000 0.626250
vt 0.206500 0.502000
vt 0.413000 0.626250
vt 0.413000 0.874750
vt 0.678500 0.250000
vt 0.678500 0.001000
vt 0.472000 0.125500
vt 0.472000 0.374500
vt 0.678500 0.499000
vt 0.885000 0.374500
vt 0.885000 0.125500
vt 0.004000 0.506000
vt 0.004000 0.506000
vt 0.004000 0.506000
vt 0.004000 0.506000
vt 0.004000 0.506000
vt 0.004000 0.506000
vt 0.004000 0.506000
vt 0.004000 0.506000
vt 0.004000 0.506000
vt 0.004000 0.506000
vt 0.004000 0.506000
vt 0.004000 0.506000
vt 0.004000 0.506000
vt 0.004000 0.506000
vt 0.004000 0.506000
vt 0.004000 0.506000
vt 0.004000 0.506000
vt 0.004000 0.506000
vt 0.004000 0.506000
vt 0.004000 0.506000
vt 0.004000 0.506000
vt 0.004000 0.506000
vt 0.004000 0.506000
vt 0.004000 0.506000
vn 0.000000 1.000000 0.000000
vn 0.000000 -1.000000 0.000000
vn 0.500000 0.000000 0.866025
vn 1.000000 0.000000 0.000000
vn 0.500000 0.000000 -0.866025
vn -0.500000 0.000000 -0.866025
vn -1.000000 0.000000 0.000000
vn -0.500000 0.000000 0.866025
f 1/1/1 2/2/1 3/3/1
f 1/1/1 3/3/1 4/4/1
f 1/1/1 4/4/1 5/5/1
f 1/1/1 5/5/1 6/6/1
f 1/1/1 6/6/1 7/7/1
f 1/1/1 7/7/1 2/2/1
f 8/8/2 10/10/2 9/9/2
f 8/8/2 11/11/2 10/10/2
f 8/8/2 12/12/2 11/11/2
f 8/8/2 13/13/2 12/12/2
f 8/8/2 14/14/2 13/13/2
f 8/8/2 9/9/2 14/14/2
f 15/15/3 16/16/3 17/17/3
f 15/15/3 17/17/3 18/18/3
f 19/19/4 20/20/4 21/21/4
f 19/19/4 21/21/4 22/22/4
f 23/23/5 24/24/5 25/25/5
f 23/23/5 25/25/5 26/26/5
f 27/27/6 28/28/6 29/29/6
f 27/27/6 29/29/6 30/30/6
f 31/31/7 32/32/7 33/33/7
f 31/31/7 33/33/7 34/34/7
f 35/35/8 36/36/8 37/37/8
f 35/35/8 37/37/8 38/38/8
