# RftG square tile: canonical UV, front rot270
v -1.002849 0.030000 -1.000000
v -1.002849 0.030000 1.000000
v 1.002849 0.030000 1.000000
v 1.002849 0.030000 -1.000000
v -1.002849 -0.030000 -1.000000
v 1.002849 -0.030000 -1.000000
v 1.002849 -0.030000 1.000000
v -1.002849 -0.030000 1.000000
v -1.002849 0.030000 -1.000000
v 1.002849 0.030000 -1.000000
v 1.002849 -0.030000 -1.000000
v -1.002849 -0.030000 -1.000000
v 1.002849 0.030000 -1.000000
v 1.002849 0.030000 1.000000
v 1.002849 -0.030000 1.000000
v 1.002849 -0.030000 -1.000000
v 1.002849 0.030000 1.000000
v -1.002849 0.030000 1.000000
v -1.002849 -0.030000 1.000000
v 1.002849 -0.030000 1.000000
v -1.002849 0.030000 1.000000
v -1.002849 0.030000 -1.000000
v -1.002849 -0.030000 -1.000000
v -1.002849 -0.030000 1.000000
vt 0.343750 0.688477
vt 0.000000 0.688477
vt 0.000000 0.345703
vt 0.343750 0.345703
vt 0.343750 0.343750
vt 0.000000 0.343750
vt 0.000000 0.000000
vt 0.343750 0.000000
vt 0.004000 0.349703
vt 0.004000 0.349703
vt 0.004000 0.349703
vt 0.004000 0.349703
vt 0.004000 0.349703
vt 0.004000 0.349703
vt 0.004000 0.349703
vt 0.004000 0.349703
vt 0.004000 0.349703
vt 0.004000 0.349703
vt 0.004000 0.349703
vt 0.004000 0.349703
vt 0.004000 0.349703
vt 0.004000 0.349703
vt 0.004000 0.349703
vt 0.004000 0.349703
vn 0.000000 1.000000 0.000000
vn 0.000000 -1.000000 0.000000
vn 0.000000 0.000000 -1.000000
vn 1.000000 0.000000 0.000000
vn 0.000000 0.000000 1.000000
vn -1.000000 0.000000 0.000000
f 1/1/1 2/2/1 3/3/1 4/4/1
f 5/5/2 6/6/2 7/7/2 8/8/2
f 9/9/3 10/10/3 11/11/3 12/12/3
f 13/13/4 14/14/4 15/15/4 16/16/4
f 17/17/5 18/18/5 19/19/5 20/20/5
f 21/21/6 22/22/6 23/23/6 24/24/6
